<svg width="20" height="16" viewBox="0 0 20 16" fill="none" xmlns="http://www.w3.org/2000/svg">
<path d="M3.95919 7.08332H18.25C18.4931 7.08332 18.7263 7.1799 18.8982 7.35181C19.0701 7.52372 19.1667 7.75688 19.1667 7.99999C19.1667 8.24311 19.0701 8.47626 18.8982 8.64817C18.7263 8.82008 18.4931 8.91666 18.25 8.91666H3.95919L8.81753 13.775C8.96654 13.9514 9.04349 14.1776 9.03298 14.4082C9.02246 14.6389 8.92527 14.8572 8.76083 15.0193C8.59638 15.1814 8.37681 15.2755 8.14599 15.2827C7.91518 15.29 7.69014 15.2098 7.51586 15.0583L1.09919 8.64166C0.931236 8.47031 0.837158 8.23993 0.837158 7.99999C0.837158 7.76005 0.931236 7.52968 1.09919 7.35833L7.51586 0.941658C7.69014 0.790153 7.91518 0.710009 8.14599 0.717248C8.37681 0.724486 8.59638 0.818575 8.76083 0.980702C8.92527 1.14283 9.02246 1.36105 9.03298 1.59174C9.04349 1.82242 8.96654 2.04858 8.81753 2.22499L3.95003 7.08332H3.95919Z" fill="#8897AA"/>
</svg>
