<svg width="46" height="20" viewBox="0 0 46 20" fill="none" xmlns="http://www.w3.org/2000/svg">
<path d="M4.8301 13.5306C4.95279 13.7075 5.01236 13.9262 4.99786 14.1467C4.98337 14.3672 4.89578 14.5747 4.75119 14.731C4.60659 14.8873 4.4147 14.982 4.21072 14.9977C4.00675 15.0134 3.8044 14.949 3.64081 14.8163L0.242834 11.1429C0.0871837 10.9712 -2.07209e-07 10.7404 -1.96701e-07 10.5C-1.86194e-07 10.2596 0.0871838 10.0288 0.242834 9.85714L3.64081 6.18367C3.8044 6.05104 4.00675 5.98664 4.21073 6.00231C4.4147 6.01798 4.6066 6.11267 4.75119 6.26898C4.89578 6.4253 4.98337 6.63276 4.99786 6.85327C5.01236 7.07377 4.95279 7.29254 4.8301 7.46939L2.03527 10.5L4.8386 13.5306L4.8301 13.5306Z" fill="#2D3C4B"/>
<rect x="14" width="32" height="2" fill="#2D3C4B"/>
<rect x="14" y="18" width="32" height="2" fill="#2D3C4B"/>
<rect x="14" y="9" width="22" height="2" fill="#2D3C4B"/>
</svg>
