<svg width="80" height="10" viewBox="0 0 80 10" fill="none" xmlns="http://www.w3.org/2000/svg">
<path d="M5.76087 9.78988H0V0.210938H2.5V7.57936H5.76087V9.78988Z" fill="#2D3C4B"/>
<path d="M8.26099 0.210938H10.761V9.78988H8.26099V0.210938Z" fill="#2D3C4B"/>
<path d="M19.0216 2.21073H15.4347V4.10547H18.9129V6.21073H15.4347V9.78968H12.9347V0.105469H19.0216V2.21073Z" fill="#2D3C4B"/>
<path d="M27.2827 2.21073H23.5871V3.68442H27.174V5.68442H23.6957V7.57915H27.3914V9.68442H21.3044V0.105469H27.3914V2.21073H27.2827Z" fill="#2D3C4B"/>
<path d="M34.9999 6.73684C35.7608 7.68421 36.5216 7.78947 36.9564 7.78947C37.4999 7.78947 37.9347 7.47368 37.9347 6.94737C37.9347 6.21052 37.2825 6 36.6303 5.78947C35.5434 5.57895 33.5869 4.84211 33.5869 2.84211C33.5869 0.842106 35.326 0 36.9564 0C38.1521 0 39.3477 0.526317 40.1086 1.78947L38.4782 2.73684C38.0434 2.21052 37.6086 2 37.0651 2C36.5216 2 36.0869 2.21052 36.0869 2.73684C36.0869 3.26316 36.739 3.47369 37.2825 3.57895C38.8043 4 40.5434 4.73684 40.4347 6.94737C40.326 8.94737 38.5869 9.78947 36.8477 9.78947C35.7608 9.78947 34.239 9.36842 33.3695 7.78947L34.9999 6.73684Z" fill="#2D3C4B"/>
<path d="M49.0218 0.210938V2.3162H46.7392V9.78988H44.2392V2.3162H41.9566V0.210938H49.0218Z" fill="#2D3C4B"/>
<path d="M58.5868 9.78988H55.7607L53.8042 6.42146H53.4781V9.78988H50.9781V0.210938H54.3477C55.7607 0.210938 56.9564 0.631988 57.6085 1.68462C57.9346 2.21093 58.0433 2.84251 58.0433 3.47409C58.0433 4.63199 57.3912 5.68462 56.0868 6.10567L58.5868 9.78988ZM54.3477 4.42146C55.1085 4.42146 55.5433 3.89515 55.5433 3.36883C55.5433 2.84252 55.1085 2.3162 54.3477 2.3162H53.3694V4.42146H54.3477Z" fill="#2D3C4B"/>
<path d="M69.9999 5.05241C69.9999 8.10504 67.7173 9.99978 64.8912 9.99978C62.0651 9.99978 59.7825 8.10504 59.7825 5.05241C59.7825 1.99978 62.0651 0.105038 64.8912 0.105038C67.7173 -0.00022497 69.9999 1.99978 69.9999 5.05241ZM64.8912 7.78925C66.1956 7.78925 67.4999 7.05241 67.4999 5.05241C67.4999 3.05241 66.1956 2.31557 64.8912 2.31557C63.5869 2.31557 62.2825 3.26293 62.2825 5.05241C62.2825 6.84188 63.5869 7.78925 64.8912 7.78925Z" fill="#2D3C4B"/>
<path d="M75.2174 4.10567L75.8696 2.52673L77.1739 0.210938H80L77.6087 4.42146L76.5218 6.10567V9.78988H73.9131V6.10567L72.8261 4.3162L70.4348 0.210938H73.2609L74.5652 2.52673L75.2174 4.10567Z" fill="#2D3C4B"/>
</svg>
